<svg width="150" height="127" viewBox="0 0 150 127" fill="none" xmlns="http://www.w3.org/2000/svg">
<g clip-path="url(#clip0_66_1394)">
<path d="M11.0615 94.3196C13.337 94.3196 15.1334 94.8884 16.4535 96.0262C17.7735 97.1639 18.435 98.6963 18.435 100.626C18.435 101.796 18.1464 102.861 17.5721 103.813C16.9978 104.766 16.2167 105.495 15.2286 106.002C16.5596 106.508 17.5721 107.284 18.2608 108.329C18.9494 109.374 19.295 110.585 19.295 111.965C19.295 113.941 18.6173 115.514 17.2618 116.685C15.9064 117.855 14.0338 118.443 11.644 118.443H0V94.3223H11.0615V94.3196ZM13.7153 103.745C14.4284 103.136 14.7823 102.316 14.7823 101.282C14.7823 100.18 14.4311 99.306 13.7316 98.6636C13.0294 98.0213 12.0822 97.7001 10.8873 97.7001H3.61731V104.66H10.8193C12.0359 104.66 13.0022 104.355 13.7126 103.748L13.7153 103.745ZM14.3359 114.066C15.0953 113.424 15.4736 112.54 15.4736 111.413C15.4736 110.286 15.0762 109.477 14.2842 108.846C13.4921 108.215 12.4986 107.899 11.3038 107.899H3.61731V115.033H11.3718C12.5885 115.033 13.5765 114.712 14.3359 114.069V114.066Z" fill="white"/>
<path d="M28.4622 117.477L20.0871 100.18H23.601L30.2177 113.895L36.2493 100.18H39.6952L28.0131 126.712H24.4284L28.4594 117.477H28.4622Z" fill="white"/>
<path d="M47.7082 117.286C45.8819 116.173 44.4529 114.649 43.4186 112.719C42.3843 110.789 41.8672 108.642 41.8672 106.277C41.8672 103.911 42.3843 101.884 43.4186 99.9892C44.4529 98.0948 45.8819 96.5951 47.7082 95.4928C49.5346 94.3904 51.595 93.8379 53.8949 93.8379C56.1949 93.8379 58.1328 94.3605 59.9265 95.4057C61.7175 96.4508 63.1301 97.8825 64.1644 99.6953L61.3038 101.486C60.6614 100.291 59.7006 99.287 58.4268 98.4704C57.153 97.6539 55.6641 97.2483 53.963 97.2483C52.4469 97.2483 51.0506 97.6212 49.7768 98.367C48.503 99.1128 47.485 100.166 46.7284 101.519C45.969 102.874 45.5906 104.448 45.5906 106.239C45.5906 108.03 45.969 109.695 46.7284 111.097C47.4878 112.499 48.503 113.585 49.7768 114.352C51.0506 115.123 52.4469 115.506 53.963 115.506C55.4791 115.506 56.9543 115.128 58.1846 114.369C59.4121 113.609 60.4518 112.599 61.3038 111.337L64.1971 113.127C63.141 114.918 61.7093 116.339 59.9075 117.384C58.1029 118.43 56.0996 118.952 53.8949 118.952C51.6903 118.952 49.5346 118.394 47.7082 117.281V117.286Z" fill="white"/>
<path d="M71.3119 117.684C69.8748 116.81 68.7452 115.623 67.9178 114.118C67.0904 112.613 66.6766 110.953 66.6766 109.14C66.6766 107.327 67.0904 105.827 67.9178 104.366C68.7452 102.907 69.8748 101.753 71.3119 100.904C72.7463 100.054 74.3386 99.6299 76.0833 99.6299C77.828 99.6299 79.4202 100.054 80.8546 100.904C82.289 101.753 83.4213 102.902 84.2488 104.35C85.0762 105.798 85.4899 107.395 85.4899 109.14C85.4899 110.885 85.0762 112.616 84.2488 114.118C83.4213 115.623 82.289 116.813 80.8546 117.684C79.4175 118.557 77.828 118.993 76.0833 118.993C74.3386 118.993 72.7463 118.557 71.3119 117.684ZM79.2379 114.807C80.1225 114.197 80.7948 113.389 81.2548 112.376C81.7147 111.366 81.9434 110.275 81.9434 109.102C81.9434 108.046 81.7147 107.041 81.2548 106.086C80.7948 105.133 80.1225 104.363 79.2379 103.778C78.3533 103.193 77.3027 102.899 76.086 102.899C74.8693 102.899 73.8459 103.193 72.9504 103.778C72.055 104.363 71.3718 105.133 70.9009 106.086C70.43 107.039 70.1932 108.046 70.1932 109.102C70.1932 110.272 70.4273 111.364 70.9009 112.376C71.3718 113.386 72.055 114.197 72.9504 114.807C73.8459 115.416 74.8911 115.719 76.086 115.719C77.2809 115.719 78.3533 115.414 79.2379 114.807Z" fill="white"/>
<path d="M92.2809 100.177V102.831C92.877 101.843 93.699 101.072 94.7441 100.523C95.7893 99.97 97.0005 99.6951 98.3805 99.6951C99.6217 99.6951 100.765 99.9999 101.81 100.607C102.855 101.217 103.688 102.055 104.309 103.122C104.929 104.189 105.24 105.367 105.24 106.655V118.44H101.69V107.896C101.69 106.54 101.287 105.403 100.484 104.485C99.6788 103.566 98.5901 103.108 97.2101 103.108C96.3146 103.108 95.5035 103.35 94.7795 103.832C94.0555 104.314 93.4812 104.965 93.0566 105.778C92.632 106.595 92.4197 107.485 92.4197 108.448V118.44H88.9058V100.177H92.2836H92.2809Z" fill="white"/>
<path d="M109.545 93.3887H113.163V96.663H109.545V93.3887ZM109.614 100.177H113.095V118.44H109.614V100.177Z" fill="white"/>
<path d="M126.432 118.854C124.273 118.854 122.733 118.372 121.815 117.406C120.895 116.443 120.438 114.924 120.438 112.858V103.348H116.543V100.177H120.438V96.5243L123.816 95.49V100.177H128.743V103.348H123.816V112.858C123.816 114.766 125.057 115.719 127.537 115.719C127.744 115.719 128.146 115.697 128.743 115.651V118.718C127.983 118.811 127.216 118.857 126.434 118.857L126.432 118.854Z" fill="white"/>
<path d="M138.767 117.477L130.392 100.18H133.906L140.523 113.895L146.554 100.18H150L138.318 126.712H134.733L138.764 117.477H138.767Z" fill="white"/>
<path d="M79.2733 21.6167V31.8889L69.4148 34.5291V24.2569L79.2733 21.6167Z" fill="white"/>
<path d="M79.2733 42.1611V52.4333L69.4148 55.0735V44.8013L79.2733 42.1611Z" fill="white"/>
<path d="M94.5318 17.5286V7.2564L82.877 10.3783V0L47.0768 9.59173V71.331L58.7289 68.209V16.8508L79.2733 11.3473V21.6168L89.5454 18.8623V18.865V29.1372L79.2733 31.889V42.1611L89.5454 39.4066V49.6815L79.2733 52.4306V62.7055L58.7289 68.209V76.8889L69.0011 74.1372V74.1345V81.1323L102.923 72.0441V15.2803L94.5318 17.5286Z" fill="white"/>
</g>
<defs>
<clipPath id="clip0_66_1394">
<rect width="150" height="126.712" fill="white"/>
</clipPath>
</defs>
</svg>
