<svg
  width="32"
  height="32"
  viewBox="0 0 32 32"
  fill="none"
  xmlns="http://www.w3.org/2000/svg"
>
  <g clip-path="url(#clip0_7_685)">
    <path
      d="M9.08415 11.3066L8.24782 12.0827C7.97792 12.3331 7.96214 12.7549 8.21258 13.0248L8.21607 13.0285L8.22464 13.0375L11.1914 16.0561L8.22464 19.0747C7.96721 19.3379 7.97192 19.76 8.23515 20.0174L8.24782 20.0295L9.08415 20.8055C9.34754 21.0499 9.75725 21.0416 10.0105 20.7867L14.2483 16.526C14.5066 16.266 14.5066 15.8462 14.2483 15.5862L10.0105 11.3254C9.75725 11.0705 9.34754 11.0622 9.08415 11.3066Z"
      fill="currentColor"
    />
    <path
      d="M16.6666 18.0001C16.2985 18.0001 16 18.2986 16 18.6667V20.0001C16 20.3683 16.2985 20.6667 16.6666 20.6667H22.6666C23.0348 20.6667 23.3333 20.3683 23.3333 20.0001V18.6667C23.3333 18.2986 23.0348 18.0001 22.6666 18.0001H16.6666Z"
      fill="currentColor"
    />
    <path
      fill-rule="evenodd"
      clip-rule="evenodd"
      d="M29.3333 2.66675C30.0697 2.66675 30.6666 3.2637 30.6666 4.00008V28.0001C30.6666 28.7365 30.0697 29.3334 29.3333 29.3334H2.66665C1.93027 29.3334 1.33331 28.7365 1.33331 28.0001V4.00008C1.33331 3.2637 1.93027 2.66675 2.66665 2.66675H29.3333ZM28 5.33341H3.99998V26.6667H28V5.33341Z"
      fill="currentColor"
    />
  </g>
  <defs>
    <clipPath id="clip0_7_685">
      <rect width="32" height="32" fill="currentColor" />
    </clipPath>
  </defs>
</svg>
