<svg
  width="32"
  height="32"
  viewBox="0 0 32 32"
  fill="none"
  xmlns="http://www.w3.org/2000/svg"
>
  <g clip-path="url(#clip0_7_681)">
    <path
      fill-rule="evenodd"
      clip-rule="evenodd"
      d="M22.7809 1.33325C23.1346 1.33325 23.4738 1.47381 23.7239 1.72398L27.6097 5.61143C27.8596 5.86146 28 6.20052 28 6.55404V29.3333C28 30.0696 27.403 30.6666 26.6667 30.6666H5.33333C4.59695 30.6666 4 30.0696 4 29.3333V2.66659C4 1.93021 4.59695 1.33325 5.33333 1.33325H22.7809ZM21.3327 3.99992L6.66667 3.99992V27.9999H25.3333V8.02525L22 8.02589C21.6318 8.02589 21.3333 7.72742 21.3333 7.35923L21.3327 3.99992ZM15.3333 21.9999C15.7015 21.9999 16 22.2984 16 22.6666V23.9999C16 24.3681 15.7015 24.6666 15.3333 24.6666H10C9.63181 24.6666 9.33333 24.3681 9.33333 23.9999V22.6666C9.33333 22.2984 9.63181 21.9999 10 21.9999H15.3333ZM22 16.6666C22.3682 16.6666 22.6667 16.9651 22.6667 17.3333V18.6666C22.6667 19.0348 22.3682 19.3333 22 19.3333H10C9.63181 19.3333 9.33333 19.0348 9.33333 18.6666V17.3333C9.33333 16.9651 9.63181 16.6666 10 16.6666H22ZM22 11.3333C22.3682 11.3333 22.6667 11.6317 22.6667 11.9999V13.3333C22.6667 13.7014 22.3682 13.9999 22 13.9999H10C9.63181 13.9999 9.33333 13.7014 9.33333 13.3333V11.9999C9.33333 11.6317 9.63181 11.3333 10 11.3333H22Z"
      fill="currentColor"
    />
  </g>
  <defs>
    <clipPath id="clip0_7_681">
      <rect width="32" height="32" fill="currentColor" />
    </clipPath>
  </defs>
</svg>
