<svg
  width="62"
  height="62"
  viewBox="0 0 62 62"
  fill="none"
  xmlns="http://www.w3.org/2000/svg"
>
  <path
    fill-rule="evenodd"
    clip-rule="evenodd"
    d="M52.7122 11.8142V23.4392C52.7122 24.1525 52.1339 24.7308 51.4205 24.7308H48.8372C48.1238 24.7308 47.5455 24.1525 47.5455 23.4392L47.5459 18.076L17.5752 48.048C17.0708 48.5525 16.253 48.5525 15.7486 48.048L13.9219 46.2214C13.4174 45.7169 13.4174 44.8991 13.9219 44.3947L43.918 14.397L38.5039 14.3975C37.7905 14.3975 37.2122 13.8192 37.2122 13.1058V10.5225C37.2122 9.80913 37.7905 9.23083 38.5039 9.23083H50.1289C51.5556 9.23083 52.7122 10.3874 52.7122 11.8142ZM52.4756 36.1812L52.4864 36.3432L52.5024 39.9806C52.5027 40.0454 52.4981 40.1097 52.4882 40.171L52.4298 42.3202C52.4014 43.5588 52.374 45.0434 52.3478 46.7741C52.3427 47.1099 52.2071 47.4305 51.9696 47.6679C51.5012 48.1363 50.7625 48.1698 50.2555 47.7682L50.1429 47.6679L47.7502 45.2747L36.7892 56.2345C36.3208 56.7029 35.5822 56.7363 35.0752 56.3349L34.9625 56.2345L33.1358 54.4078C32.6674 53.9394 32.634 53.2008 33.0354 52.6938L33.1358 52.5811L50.2814 35.4355C50.5222 35.1947 50.8485 35.0587 51.1891 35.0572C51.7969 35.0545 52.3085 35.4722 52.4485 36.0371L52.4756 36.1812ZM26.9042 10.7723C26.9027 11.1129 26.7667 11.4391 26.5259 11.68L9.38028 28.8256C8.87585 29.33 8.05801 29.33 7.55358 28.8256L5.72689 26.9989C5.22246 26.4945 5.22246 25.6766 5.72689 25.1722L16.6867 14.2112L14.2935 11.8185C13.789 11.3141 13.789 10.4962 14.2935 9.99177C14.5309 9.75432 14.8515 9.61867 15.1873 9.61358L18.3206 9.55966C19.7232 9.53196 20.8798 9.50314 21.7904 9.47321L21.8843 9.46228L22.2134 9.45904L25.6182 9.47499C26.3316 9.47812 26.9073 10.059 26.9042 10.7723Z"
    fill="currentColor"
  />
</svg>
