<svg
  width="62"
  height="62"
  viewBox="0 0 62 62"
  fill="none"
  xmlns="http://www.w3.org/2000/svg"
>
  <path
    fill-rule="evenodd"
    clip-rule="evenodd"
    d="M14.2083 33.5833C19.9153 33.5833 24.5417 38.2097 24.5417 43.9167C24.5417 45.5936 24.1422 47.1772 23.4333 48.5776C25.7071 49.7273 28.2779 50.375 31 50.375C33.7221 50.375 36.2929 49.7273 38.5667 48.5776C37.8578 47.1772 37.4583 45.5936 37.4583 43.9167C37.4583 38.2097 42.0847 33.5833 47.7917 33.5833C47.7917 27.6003 44.6625 22.3481 39.9515 19.374C40.3909 18.6142 40.7364 17.7932 40.972 16.927C39.7785 21.315 35.7661 24.5417 31 24.5417C26.2339 24.5417 22.2215 21.315 21.028 16.927C21.2636 17.7932 21.6091 18.6142 22.0485 19.374C17.3375 22.3481 14.2083 27.6003 14.2083 33.5833ZM9.08301 34.942C9.05558 34.4926 9.04167 34.0396 9.04167 33.5833C9.04167 25.1918 13.7488 17.8997 20.6667 14.2034C20.6693 8.49874 25.2947 3.875 31 3.875C36.7053 3.875 41.3307 8.49874 41.3333 14.2034C48.2512 17.8997 52.9583 25.1918 52.9583 33.5833C52.9583 34.0396 52.9444 34.4926 52.917 34.942C56.0284 36.7227 58.125 40.0748 58.125 43.9167C58.125 49.6236 53.4986 54.25 47.7917 54.25C45.6855 54.25 43.7264 53.6199 42.0928 52.5378C38.8375 54.4471 35.0466 55.5417 31 55.5417C26.9534 55.5417 23.1625 54.4471 19.9072 52.5378C18.2736 53.6199 16.3145 54.25 14.2083 54.25C8.50139 54.25 3.875 49.6236 3.875 43.9167C3.875 40.0748 5.97158 36.7227 9.08301 34.942ZM31 19.375C33.8535 19.375 36.1667 17.0618 36.1667 14.2083C36.1667 11.3549 33.8535 9.04167 31 9.04167C28.1465 9.04167 25.8333 11.3549 25.8333 14.2083C25.8333 17.0618 28.1465 19.375 31 19.375ZM47.7917 49.0833C50.6451 49.0833 52.9583 46.7701 52.9583 43.9167C52.9583 41.0632 50.6451 38.75 47.7917 38.75C44.9382 38.75 42.625 41.0632 42.625 43.9167C42.625 46.7701 44.9382 49.0833 47.7917 49.0833ZM14.2083 49.0833C17.0618 49.0833 19.375 46.7701 19.375 43.9167C19.375 41.0632 17.0618 38.75 14.2083 38.75C11.3549 38.75 9.04167 41.0632 9.04167 43.9167C9.04167 46.7701 11.3549 49.0833 14.2083 49.0833Z"
    fill="currentColor"
  />
</svg>
