<svg
  width="62"
  height="62"
  viewBox="0 0 62 62"
  fill="none"
  xmlns="http://www.w3.org/2000/svg"
>
  <path
    fill-rule="evenodd"
    clip-rule="evenodd"
    d="M31 2.58325C46.6941 2.58325 59.4167 15.3058 59.4167 30.9999C59.4167 46.694 46.6941 59.4166 31 59.4166C15.3059 59.4166 2.58333 46.694 2.58333 30.9999C2.58333 15.3058 15.3059 2.58325 31 2.58325ZM31 7.74992C18.1594 7.74992 7.75 18.1593 7.75 30.9999C7.75 43.8405 18.1594 54.2499 31 54.2499C43.8406 54.2499 54.25 43.8405 54.25 30.9999C54.25 18.1593 43.8406 7.74992 31 7.74992ZM41.3333 21.9583V29.7083H36.1667V21.9583H41.3333ZM25.8333 21.9583V29.7083H20.6667V21.9583H25.8333ZM39.0474 36.1665H42.8167C43.3242 36.1665 43.7357 36.578 43.7357 37.0855C43.7357 37.2291 43.702 37.3707 43.6373 37.4989L43.5708 37.6282C41.1889 42.1361 36.4532 45.2083 31 45.2083C25.6341 45.2083 20.9629 42.2337 18.5454 37.8436L18.3593 37.4941C18.1291 37.0469 18.305 36.4977 18.7522 36.2675C18.8811 36.2011 19.024 36.1665 19.169 36.1665H22.9535C23.3429 36.1665 23.7115 36.3421 23.9568 36.6446C24.2656 37.0253 24.5224 37.3144 24.7271 37.5117C26.3529 39.0782 28.564 40.0416 31 40.0416C33.4525 40.0416 35.677 39.0651 37.3058 37.4798C37.502 37.2889 37.7478 37.0108 38.0433 36.6457C38.2885 36.3426 38.6575 36.1665 39.0474 36.1665Z"
    fill="currentColor"
  />
</svg>
