<svg
  width="80"
  height="80"
  viewBox="0 0 80 80"
  fill="none"
  xmlns="http://www.w3.org/2000/svg"
>
  <path
    d="M18.88 7H61.12C69.04 7 73 10.96 73 18.88V61.12C73 69.04 69.04 73 61.12 73H18.88C10.96 73 7 69.04 7 61.12V18.88C7 10.96 10.96 7 18.88 7Z"
    fill="#EC5D85"
  />
  <path
    d="M40 22.5953H43.366L47.5596 16.3873C50.7587 13.1441 53.3373 16.415 51.6754 19.3335L49.4637 22.6533C66.07 22.9774 66.07 25.4253 66.07 43.6031C66.07 64.6115 66.07 65.2893 40 65.2893C13.93 65.2893 13.93 64.6115 13.93 43.6031C13.93 25.7045 13.93 23.0553 30.2459 22.6586L27.7042 18.8966C25.6892 15.3577 30.1106 13.0695 31.8734 16.1656L35.7674 22.5986C36.9396 22.5953 38.4219 22.5953 40 22.5953Z"
    fill="#EF85A7"
  />
  <path
    d="M40 28.8228C61.45 28.8228 61.45 28.8228 61.45 44.3328C61.45 59.8428 61.45 60.3424 40 60.3424C18.55 60.3424 18.55 59.8428 18.55 44.3328C18.55 28.8228 18.55 28.8228 40 28.8228Z"
    fill="#EC5D85"
  />
  <path
    d="M25.15 42.9701C24.7823 42.9701 24.4219 42.8677 24.1092 42.6744C23.7964 42.4812 23.5436 42.2046 23.3792 41.8758C23.1443 41.4062 23.1056 40.8624 23.2716 40.3643C23.4375 39.8661 23.7946 39.4542 24.2642 39.2193L32.1842 35.2593C32.4168 35.143 32.67 35.0737 32.9294 35.0553C33.1888 35.0368 33.4493 35.0697 33.6959 35.1519C33.9426 35.2342 34.1707 35.3642 34.3671 35.5346C34.5635 35.705 34.7245 35.9124 34.8407 36.145C34.957 36.3776 35.0264 36.6308 35.0448 36.8902C35.0632 37.1496 35.0303 37.41 34.9481 37.6567C34.8659 37.9034 34.7358 38.1315 34.5654 38.3279C34.395 38.5243 34.1876 38.6853 33.955 38.8015L26.035 42.7615C25.7603 42.899 25.4572 42.9705 25.15 42.9701ZM55.51 42.9701C55.2239 42.9699 54.9412 42.9075 54.6817 42.7873L46.1017 38.8273C45.6248 38.6075 45.2547 38.2073 45.0729 37.7146C44.8911 37.222 44.9124 36.6774 45.1321 36.2005C45.2411 35.9644 45.3954 35.752 45.5865 35.5756C45.7775 35.3992 46.0013 35.2621 46.2453 35.1722C46.4893 35.0823 46.7486 35.0413 47.0084 35.0516C47.2682 35.0619 47.5235 35.1233 47.7596 35.2322L56.3396 39.1922C56.7494 39.3813 57.0823 39.7048 57.2832 40.109C57.484 40.5132 57.5407 40.9739 57.4439 41.4148C57.3471 41.8556 57.1026 42.2502 56.7509 42.533C56.3991 42.8159 55.9613 42.9701 55.51 42.9701ZM36.304 49.9826C36.15 49.9822 35.9982 49.9459 35.8607 49.8766C35.7233 49.8073 35.6038 49.7068 35.512 49.5833C35.3546 49.3733 35.2871 49.1094 35.3242 48.8496C35.3614 48.5899 35.5001 48.3555 35.71 48.1979L40.1254 44.9164L43.3706 48.3082C43.5521 48.4979 43.6508 48.752 43.645 49.0145C43.6392 49.277 43.5293 49.5265 43.3396 49.708C43.1498 49.8895 42.8957 49.9882 42.6332 49.9824C42.3707 49.9766 42.1212 49.8667 41.9397 49.677L39.9036 47.5485L36.8927 49.7866C36.7227 49.9136 36.5162 49.9823 36.304 49.9826Z"
    fill="#EF85A7"
  />
  <path
    d="M11.224 30.8036C12.1929 37.3719 13.3413 40.2898 14.095 53.7056C15.0381 53.8462 25.5486 54.353 27.2468 48.8955C27.3632 48.6815 27.4008 48.4335 27.3531 48.1946C25.3803 43.0169 16.4466 44.3006 16.4466 44.3006C16.4466 44.3006 15.7787 34.858 15.7054 28.9067L11.224 30.8036ZM30.3482 31.688L32.5922 51.2286H34.8249L33.1188 31.5652L30.3482 31.688ZM26.9498 41.5655H29.8815L30.9191 51.7889L28.8678 51.9084L26.9498 41.5655ZM35.8017 41.9972H38.7539V52.4608H36.5706L35.8017 41.9972ZM26.1169 36.5179H27.4956L27.8355 40.3201L26.6165 40.466L26.1169 36.5179ZM28.0758 36.5179H29.4545L29.6182 40.1149L28.4962 40.2191L28.0758 36.5179ZM37.3329 36.6413H38.5869V40.6554H37.3329V36.6413ZM35.3747 36.6413H36.8056V40.6554H35.7338L35.3747 36.6413Z"
    fill="white"
  />
  <path
    d="M22.6988 48.606C22.1222 49.1568 21.5092 49.6681 20.864 50.1365C20.2569 50.5574 19.6209 50.9348 18.9605 51.2658C18.9356 51.286 18.9055 51.299 18.8736 51.3032C18.8418 51.3075 18.8094 51.3028 18.78 51.2897C18.7506 51.2767 18.7254 51.2558 18.7072 51.2293C18.689 51.2028 18.6784 51.1718 18.6767 51.1397C18.5299 50.5113 18.4197 49.8749 18.3467 49.2336C18.2556 48.4482 18.2207 47.5784 18.2075 46.89C18.2075 46.8702 18.2075 46.7283 18.4015 46.7672C19.1507 46.9195 19.8878 47.1257 20.6072 47.3843C21.3243 47.6616 22.0212 47.9884 22.6928 48.3624C22.7265 48.3789 22.8552 48.4581 22.6988 48.606Z"
    fill="#EB5480"
  />
  <path
    d="M40.0831 30.8036C41.052 37.3719 42.2004 40.2898 42.9541 53.7056C43.8973 53.8462 54.4078 54.353 56.106 48.8955C56.2223 48.6815 56.2599 48.4335 56.2122 48.1946C54.2395 43.0169 45.3057 44.3006 45.3057 44.3006C45.3057 44.3006 44.6378 34.858 44.5645 28.9067L40.0831 30.8036ZM59.2073 31.688L61.4513 51.2286H63.6841L61.978 31.5652L59.2073 31.688ZM55.809 41.5655H58.7407L59.7782 51.7889L57.7269 51.9084L55.809 41.5655ZM64.6609 41.9972H67.6131V52.4608H65.4298L64.6609 41.9972ZM54.976 36.5179H56.3548L56.6947 40.3201L55.4757 40.466L54.976 36.5179ZM56.9349 36.5179H58.3137L58.4773 40.1149L57.3553 40.2191L56.9349 36.5179ZM66.1921 36.6413H67.4461V40.6554H66.1921V36.6413ZM64.2339 36.6413H65.6647V40.6554H64.5929L64.2339 36.6413Z"
    fill="white"
  />
  <path
    d="M51.5579 48.606C50.9814 49.1568 50.3684 49.6681 49.7231 50.1365C49.1161 50.5574 48.4801 50.9348 47.8197 51.2658C47.7948 51.286 47.7647 51.299 47.7328 51.3032C47.701 51.3075 47.6685 51.3028 47.6392 51.2897C47.6098 51.2767 47.5846 51.2558 47.5664 51.2293C47.5482 51.2028 47.5376 51.1718 47.5359 51.1397C47.3891 50.5113 47.2789 49.8749 47.2059 49.2336C47.1148 48.4482 47.0799 47.5784 47.0667 46.89C47.0667 46.8702 47.0667 46.7283 47.2607 46.7672C48.0098 46.9195 48.747 47.1257 49.4664 47.3843C50.1835 47.6616 50.8803 47.9884 51.552 48.3624C51.5857 48.3789 51.7144 48.4581 51.5579 48.606Z"
    fill="#EB5480"
  />
</svg>
