<svg width="80" height="80" viewBox="0 0 80 80" fill="none" xmlns="http://www.w3.org/2000/svg">
<path d="M72 40.7823C72.0019 47.452 69.8912 53.9535 65.967 59.3658C62.0429 64.7781 56.5037 68.8271 50.1344 70.9395C48.512 71.2574 47.936 70.2593 47.936 69.4107C47.936 68.3681 47.9744 64.9386 47.9744 60.6922C48.0557 59.6137 47.904 58.5308 47.529 57.5156C47.1543 56.5001 46.5654 55.5764 45.8016 54.8057C52.9312 54.0174 60.4128 51.3316 60.4128 39.1199C60.4624 35.9628 59.2838 32.9082 57.1232 30.5921C58.0998 27.8497 57.9853 24.8403 56.8032 22.1787C56.8032 22.1787 54.1216 21.3237 48.0128 25.4367C42.7683 24.0128 37.2349 24.0128 31.9904 25.4367C25.8784 21.3237 23.1904 22.1787 23.1904 22.1787C22.0111 24.8409 21.8967 27.8492 22.8704 30.5921C20.7122 32.9096 19.5354 35.9634 19.584 39.1199C19.584 51.2998 27.0528 54.0269 34.16 54.8279C32.9967 55.9563 32.2763 57.4597 32.128 59.068C31.3432 59.5069 30.4785 59.7869 29.584 59.8915C28.6895 59.9964 27.783 59.9239 26.9169 59.6782C26.0508 59.4325 25.2424 59.0187 24.5385 58.4606C23.8346 57.9024 23.2491 57.2111 22.816 56.4267C22.3035 55.5488 21.5961 54.7983 20.7478 54.2326C19.8993 53.6671 18.9323 53.301 17.92 53.1624C17.92 53.1624 14.7936 53.1211 17.6992 55.0949C19.403 56.1746 20.6617 57.8239 21.248 59.745C21.248 59.745 23.1232 65.9239 32.0256 64.0041C32.0416 66.6581 32.0704 68.6542 32.0704 69.4075C32.0704 70.2498 31.4848 71.2319 29.8848 70.9395C24.2956 69.09 19.329 65.7434 15.5321 61.2691C11.7353 56.7951 9.25573 51.3666 8.36657 45.5818C7.47742 39.7973 8.21323 33.8812 10.4929 28.4853C12.7726 23.0895 16.5077 18.4236 21.2866 15.0015C26.0655 11.5796 31.7027 9.53434 37.577 9.09126C43.4515 8.64818 49.335 9.82447 54.5792 12.4905C59.8237 15.1565 64.2253 19.2087 67.2989 24.2007C70.3728 29.1927 71.9997 34.9307 72 40.7823Z" fill="black"/>
</svg>
