<svg
  width="80"
  height="80"
  viewBox="0 0 80 80"
  fill="none"
  xmlns="http://www.w3.org/2000/svg"
>
  <path
    d="M15.0238 64.0079C15.1906 64.8724 14.675 65.6913 13.8105 65.8733C12.9916 66.0401 12.1575 65.5245 11.9907 64.6601C11.8239 63.8411 12.3395 62.9767 13.1584 62.7947C13.9774 62.6127 14.8418 63.1435 15.0238 64.0079ZM36.7255 74.8361C35.7701 75.5337 35.5123 76.8682 36.1644 77.8692C36.862 78.8701 38.1966 79.1279 39.1975 78.4303C40.1529 77.7327 40.4107 76.3981 39.7131 75.3972C39.0762 74.4114 37.7264 74.1385 36.7255 74.8361ZM23.6832 4.72622C24.6387 4.51391 25.2453 3.55848 25.033 2.60306C24.8662 1.60214 23.9107 0.995522 22.9553 1.223C21.9999 1.43532 21.3933 2.39074 21.5753 3.34617C21.7876 4.34708 22.7278 4.9537 23.6832 4.72622ZM5.2269 35.4969C3.71036 34.4505 1.63269 34.8448 0.586274 36.4068C-0.460142 37.9234 -0.06584 40.0465 1.4507 41.093C2.96725 42.1697 5.04491 41.7906 6.09133 40.2285C7.13775 38.6513 6.74344 36.5737 5.2269 35.4969ZM46.4769 9.57916C48.0844 8.62374 48.5546 6.54607 47.6446 4.98403C46.6892 3.3765 44.6571 2.86087 43.095 3.81629C41.533 4.77172 41.0173 6.84938 41.9728 8.45692C42.8827 10.019 44.9149 10.5346 46.4769 9.57916ZM17.4957 18.3751C18.6635 17.5562 18.9213 15.9487 18.1479 14.7809C17.3744 13.6132 15.7669 13.3554 14.6446 14.1288C13.4769 14.9477 13.2191 16.5553 13.9925 17.723C14.766 18.9059 16.3583 19.1637 17.4957 18.3751ZM73.9567 42.0332C72.8344 42.291 72.0913 43.4133 72.3492 44.5962C72.5615 45.7184 73.6989 46.4615 74.8211 46.2037C75.9434 45.9914 76.6865 44.854 76.4287 43.6862C76.2012 42.564 75.0789 41.8209 73.9567 42.0332ZM79.9774 33.4192C79.8106 32.5548 78.9765 32.0392 78.1575 32.206C77.2931 32.3728 76.7775 33.2524 76.9443 34.1169C77.1111 34.9358 77.9452 35.4969 78.8096 35.3301C79.6286 35.1026 80.1897 34.2837 79.9774 33.4192ZM67.7995 22.2423C66.4953 23.1522 66.192 24.9266 67.0564 26.2308C67.9209 27.535 69.6952 27.8384 70.9994 26.9739C72.2582 26.064 72.5615 24.2896 71.697 22.9854C70.8326 21.666 69.0583 21.3324 67.7995 22.2423ZM66.8441 43.3829C70.8326 49.9192 69.1341 58.5484 62.8556 62.9615C60.2168 64.8269 57.2292 65.6458 54.2265 65.5548C52.4066 72.6977 43.7016 75.3517 38.2876 70.4988C38.1208 70.6352 37.8933 70.7566 37.7265 70.9386C31.7968 75.0484 23.7287 73.5773 19.6189 67.5567C18.1479 65.388 17.4048 62.916 17.3289 60.4441C7.41072 58.791 3.68002 46.1885 11.0959 39.2579C6.80411 32.1453 11.1869 22.9703 19.1943 21.8328C23.0008 11.7933 35.5123 7.03137 44.0049 13.6132C54.2265 10.2313 64.6754 18.0718 63.8565 28.9454C70.0895 30.8563 71.8639 39.0911 66.8441 43.3829ZM56.2283 54.6509C55.7582 51.5268 50.0256 53.9533 49.692 50.541C49.2219 45.6881 56.3193 35.2088 55.7582 31.1293C55.2425 27.4896 52.8161 26.7161 50.6929 26.6706C48.6607 26.6251 48.1299 26.9739 47.4475 27.3682C47.0077 27.626 46.4466 28.1113 45.6731 27.3227C44.7177 26.4128 43.9898 25.5484 42.731 25.3664C40.8657 25.0631 40.0468 25.6697 38.697 26.8374C38.1814 27.2772 36.8772 28.7938 35.6639 28.2175C35.1483 27.9597 33.3285 27.0498 32.0242 26.4886C29.5523 25.4119 25.9581 27.1862 24.6538 29.5217C22.6975 32.9946 18.891 46.6738 18.3298 48.4937C17.0256 52.5277 19.9829 55.8641 23.9259 55.6366C25.6093 55.5456 26.7012 54.939 27.7779 52.9978C28.3845 51.8756 34.1019 36.6646 34.5417 35.9215C34.845 35.4059 35.8914 34.7083 36.7559 35.1481C37.6203 35.6182 37.8023 36.5737 37.6658 37.4381C37.499 38.9091 33.4195 48.1904 33.283 49.2216C32.7673 52.6945 37.3625 53.2556 39.1368 49.8283C39.698 48.7515 46.0674 35.7851 46.6286 34.9206C47.2807 33.9652 47.7508 33.6619 48.4029 33.7074C48.8731 33.7074 49.6617 33.8439 49.4797 35.3604C49.2674 36.786 44.1566 46.325 43.5803 48.6605C42.8827 51.7846 44.5812 54.939 47.3565 56.3342C49.0854 57.1987 56.8349 58.7152 56.2283 54.6509ZM57.0927 68.6486C55.5307 69.7708 55.1364 71.985 56.2283 73.5925C57.305 75.2 59.4737 75.5792 61.0812 74.5024C62.6888 73.3802 63.0679 71.166 61.9912 69.5585C60.8689 67.951 58.7003 67.5112 57.0927 68.6486Z"
    fill="#FF1154"
  />
</svg>
