<svg width="80" height="80" viewBox="0 0 80 80" fill="none" xmlns="http://www.w3.org/2000/svg">
<path d="M23.789 48.0209C23.789 51.6414 21.0319 54.5785 17.6279 54.5785C14.2265 54.5785 11.4668 51.6414 11.4668 48.0209C11.4668 44.4004 14.2265 41.4633 17.6279 41.4633H23.789V48.0209ZM26.8696 48.0209C26.8696 44.3952 29.6293 41.4607 33.0333 41.4607C36.4347 41.4607 39.1944 44.3978 39.1944 48.0183V64.4201C39.1944 68.0432 36.4347 70.9803 33.0333 70.9803C29.6293 70.9803 26.8696 68.0432 26.8696 64.4201V48.0183V48.0209Z" fill="#E01E5A"/>
<path d="M33.0307 21.7801C29.6293 21.7801 26.8696 18.843 26.8696 15.2199C26.8696 11.5968 29.6293 8.65967 33.0307 8.65967C36.4347 8.65967 39.1944 11.5968 39.1944 15.2199V21.7801H33.0307ZM33.0307 25.0589C36.4347 25.0589 39.1944 27.9986 39.1944 31.6191C39.1944 35.2448 36.4347 38.1793 33.0307 38.1793H17.6279C14.2265 38.1793 11.4668 35.2422 11.4668 31.6191C11.4668 27.9986 14.2265 25.0589 17.6279 25.0589H33.0307Z" fill="#36C5F0"/>
<path d="M57.6779 31.6191C57.6779 27.9986 60.435 25.0589 63.839 25.0589C67.2404 25.0589 70.0001 27.9986 70.0001 31.6191C70.0001 35.2448 67.2404 38.1793 63.839 38.1793H57.6779V31.6191ZM54.5973 31.6191C54.5973 35.2448 51.8376 38.1793 48.4336 38.1793C45.0322 38.1793 42.2725 35.2422 42.2725 31.6191V15.2199C42.2725 11.5968 45.0322 8.65967 48.4336 8.65967C51.8376 8.65967 54.5973 11.5968 54.5973 15.2199V31.6191Z" fill="#2EB67D"/>
<path d="M48.4362 57.8598C51.8376 57.8598 54.5973 60.7969 54.5973 64.42C54.5973 68.0432 51.8376 70.9803 48.4362 70.9803C45.0322 70.9803 42.2725 68.0432 42.2725 64.42V57.8598H48.4362ZM48.4362 54.5784C45.0322 54.5784 42.2725 51.6413 42.2725 48.0182C42.2725 44.3977 45.0322 41.458 48.4362 41.458H63.8364C67.2404 41.458 69.9975 44.3977 69.9975 48.0182C69.9975 51.6439 67.2404 54.5784 63.8364 54.5784H48.4362Z" fill="#ECB22E"/>
</svg>
